<svg width="38" height="38" viewBox="0 0 38 38" fill="none" xmlns="http://www.w3.org/2000/svg">
<path d="M22.0479 3.96466C22.6687 3.96461 23.2787 4.12675 23.8174 4.43502C24.3562 4.74329 24.8051 5.18699 25.1196 5.72216L26.4084 7.91824H29.6875C31.052 7.91824 32.3606 8.46017 33.3256 9.42486C34.2906 10.3895 34.8329 11.698 34.8334 13.0625V28.1042C34.8334 28.7799 34.7003 29.4491 34.4417 30.0734C34.1831 30.6977 33.804 31.265 33.3262 31.7428C32.8483 32.2206 32.2811 32.5997 31.6567 32.8583C31.0324 33.1169 30.3633 33.25 29.6875 33.25H8.31252C6.94776 33.25 5.6389 32.7078 4.67387 31.7428C3.70884 30.7778 3.16669 29.4689 3.16669 28.1042V13.0625C3.16669 11.6977 3.70884 10.3889 4.67387 9.42384C5.6389 8.45881 6.94776 7.91666 8.31252 7.91666H11.6059L12.9913 5.66199C13.3098 5.143 13.7561 4.71434 14.2875 4.41691C14.8188 4.11949 15.4176 3.96323 16.0265 3.96307H22.0479V3.96466ZM22.0479 6.33966H16.0265C15.8532 6.3398 15.6821 6.37786 15.5251 6.45116C15.3681 6.52446 15.229 6.63124 15.1177 6.76399L15.0148 6.90649L13.2842 9.72482C13.1781 9.89792 13.0293 10.0409 12.8522 10.1401C12.6751 10.2394 12.4755 10.2915 12.2724 10.2917H8.3141C7.9501 10.2914 7.58962 10.363 7.25327 10.5021C6.91691 10.6413 6.61127 10.8453 6.35381 11.1027C6.09634 11.36 5.8921 11.6655 5.75276 12.0018C5.61341 12.338 5.54169 12.6985 5.54169 13.0625V28.1042C5.54169 29.6337 6.78302 30.875 8.31252 30.875H29.6875C30.4224 30.875 31.1272 30.5831 31.6468 30.0634C32.1664 29.5438 32.4584 28.839 32.4584 28.1042V13.0625C32.4584 12.3276 32.1664 11.6228 31.6468 11.1032C31.1272 10.5836 30.4224 10.2917 29.6875 10.2917H25.7292C25.5222 10.2918 25.3188 10.2378 25.1391 10.135C24.9594 10.0322 24.8097 9.88429 24.7048 9.70582L23.0708 6.92391C22.966 6.74567 22.8166 6.59787 22.6372 6.49512C22.4578 6.39238 22.2547 6.33824 22.0479 6.33807V6.33966ZM19 12.6667C20.8897 12.6667 22.702 13.4173 24.0382 14.7535C25.3744 16.0897 26.125 17.902 26.125 19.7917C26.125 21.6813 25.3744 23.4936 24.0382 24.8298C22.702 26.166 20.8897 26.9167 19 26.9167C17.1104 26.9167 15.2981 26.166 13.9619 24.8298C12.6257 23.4936 11.875 21.6813 11.875 19.7917C11.875 17.902 12.6257 16.0897 13.9619 14.7535C15.2981 13.4173 17.1104 12.6667 19 12.6667ZM19 15.0417C18.3762 15.0417 17.7586 15.1645 17.1823 15.4032C16.606 15.6419 16.0823 15.9918 15.6413 16.4329C15.2002 16.874 14.8503 17.3976 14.6116 17.9739C14.3729 18.5502 14.25 19.1679 14.25 19.7917C14.25 20.4154 14.3729 21.0331 14.6116 21.6094C14.8503 22.1857 15.2002 22.7093 15.6413 23.1504C16.0823 23.5915 16.606 23.9414 17.1823 24.1801C17.7586 24.4188 18.3762 24.5417 19 24.5417C20.2598 24.5417 21.468 24.0412 22.3588 23.1504C23.2496 22.2596 23.75 21.0514 23.75 19.7917C23.75 18.5319 23.2496 17.3237 22.3588 16.4329C21.468 15.5421 20.2598 15.0417 19 15.0417Z" fill="#333333"/>
</svg>
